{
    "accessors": {
        "accessor_16": {
            "bufferView": "bufferView_34",
            "byteOffset": 96,
            "byteStride": 0,
            "componentType": 5123,
            "count": 1728,
            "type": "SCALAR"
        },
        "accessor_18": {
            "bufferView": "bufferView_35",
            "byteOffset": 288,
            "byteStride": 12,
            "componentType": 5126,
            "count": 290,
            "max": [
                0.602601,
                0.602601,
                0.591601
            ],
            "min": [
                -0.602601,
                -0.602601,
                -0.611017
            ],
            "type": "VEC3"
        },
        "accessor_20": {
            "bufferView": "bufferView_35",
            "byteOffset": 3768,
            "byteStride": 12,
            "componentType": 5126,
            "count": 290,
            "max": [
                0.997733,
                0.997733,
                1
            ],
            "min": [
                -0.997733,
                -0.997733,
                -1
            ],
            "type": "VEC3"
        },
        "accessor_30": {
            "bufferView": "bufferView_34",
            "byteOffset": 0,
            "byteStride": 0,
            "componentType": 5123,
            "count": 48,
            "type": "SCALAR"
        },
        "accessor_32": {
            "bufferView": "bufferView_35",
            "byteOffset": 0,
            "byteStride": 12,
            "componentType": 5126,
            "count": 24,
            "max": [
                0.604,
                0.604,
                0
            ],
            "min": [
                -0.604,
                -0.604,
                0
            ],
            "type": "VEC3"
        }
    },
    "animations": {},
    "asset": {
        "generator": "collada2gltf@d78daf1e7950e6c22fe6bec1d07965e8a302e90d",
        "premultipliedAlpha": true,
        "profile": {
            "api": "WebGL",
            "version": "1.0.2"
        },
        "version": 1
    },
    "bufferViews": {
        "bufferView_34": {
            "buffer": "tag",
            "byteLength": 3552,
            "byteOffset": 0,
            "target": 34963
        },
        "bufferView_35": {
            "buffer": "tag",
            "byteLength": 7248,
            "byteOffset": 3552,
            "target": 34962
        }
    },
    "buffers": {
        "tag": {
            "byteLength": 10800,
            "type": "arraybuffer",
            "uri": "data:application/octet-stream;base64,"
        }
    },
    "materials": {
        "ID12": {
            "name": "edge_color000255",
            "technique": "technique0",
            "values": {}
        },
        "ID4": {
            "name": "Color_A07",
            "technique": "technique1",
            "values": {
                "diffuse": [
                    0.6,
                    0,
                    0,
                    1
                ]
            }
        }
    },
    "meshes": {
        "ID10": {
            "name": "ID10",
            "primitives": [
                {
                    "attributes": {
                        "POSITION": "accessor_32"
                    },
                    "indices": "accessor_30",
                    "material": "ID12",
                    "mode": 1
                }
            ]
        },
        "ID2": {
            "name": "ID2",
            "primitives": [
                {
                    "attributes": {
                        "NORMAL": "accessor_20",
                        "POSITION": "accessor_18"
                    },
                    "indices": "accessor_16",
                    "material": "ID4",
                    "mode": 4
                }
            ]
        }
    },
    "nodes": {
        "node_0": {
            "children": [
                "skp_camera"
            ],
            "matrix": [
                1,
                0,
                0,
                0,
                0,
                1,
                0,
                0,
                0,
                0,
                1,
                0,
                0,
                0,
                0,
                1
            ],
            "meshes": [
                "ID2",
                "ID10"
            ],
            "name": "SketchUp"
        },
        "node_2": {
            "children": [
                "node_0"
            ],
            "matrix": [
                1,
                0,
                0,
                0,
                0,
                0,
                -1,
                0,
                0,
                1,
                0,
                0,
                0,
                0,
                0,
                1
            ],
            "name": "Y_UP_Transform"
        },
        "skp_camera": {
            "children": [],
            "matrix": [
                1,
                0,
                0,
                0,
                0,
                1,
                0,
                0,
                0,
                0,
                1,
                0,
                0,
                0,
                0,
                1
            ],
            "name": "Last Saved SketchUp View"
        }
    },
    "programs": {
        "program_0": {
            "attributes": [
                "a_position"
            ],
            "fragmentShader": "tag0FS",
            "vertexShader": "tag0VS"
        },
        "program_1": {
            "attributes": [
                "a_normal",
                "a_position"
            ],
            "fragmentShader": "tag1FS",
            "vertexShader": "tag1VS"
        }
    },
    "scene": "defaultScene",
    "scenes": {
        "defaultScene": {
            "nodes": [
                "node_2"
            ]
        }
    },
    "shaders": {
        "tag0FS": {
            "type": 35632,
            "uri": "data:text/plain;base64,"
        },
        "tag0VS": {
            "type": 35633,
            "uri": "data:text/plain;base64,"
        },
        "tag1FS": {
            "type": 35632,
            "uri": "data:text/plain;base64,"
        },
        "tag1VS": {
            "type": 35633,
            "uri": "data:text/plain;base64,"
        }
    },
    "skins": {},
    "techniques": {
        "technique0": {
            "attributes": {
                "a_position": "position"
            },
            "parameters": {
                "modelViewMatrix": {
                    "semantic": "MODELVIEW",
                    "type": 35676
                },
                "position": {
                    "semantic": "POSITION",
                    "type": 35665
                },
                "projectionMatrix": {
                    "semantic": "PROJECTION",
                    "type": 35676
                }
            },
            "program": "program_0",
            "states": {
                "enable": [
                    2929,
                    2884
                ]
            },
            "uniforms": {
                "u_modelViewMatrix": "modelViewMatrix",
                "u_projectionMatrix": "projectionMatrix"
            }
        },
        "technique1": {
            "attributes": {
                "a_normal": "normal",
                "a_position": "position"
            },
            "parameters": {
                "diffuse": {
                    "type": 35666
                },
                "modelViewMatrix": {
                    "semantic": "MODELVIEW",
                    "type": 35676
                },
                "normal": {
                    "semantic": "NORMAL",
                    "type": 35665
                },
                "normalMatrix": {
                    "semantic": "MODELVIEWINVERSETRANSPOSE",
                    "type": 35675
                },
                "position": {
                    "semantic": "POSITION",
                    "type": 35665
                },
                "projectionMatrix": {
                    "semantic": "PROJECTION",
                    "type": 35676
                }
            },
            "program": "program_1",
            "states": {
                "enable": [
                    2929,
                    2884
                ]
            },
            "uniforms": {
                "u_diffuse": "diffuse",
                "u_modelViewMatrix": "modelViewMatrix",
                "u_normalMatrix": "normalMatrix",
                "u_projectionMatrix": "projectionMatrix"
            }
        }
    }
}