{
    "accessors": {
        "accessor_28": {
            "bufferView": "bufferView_49",
            "byteOffset": 96,
            "byteStride": 0,
            "componentType": 5123,
            "count": 1728,
            "type": "SCALAR"
        },
        "accessor_31": {
            "bufferView": "bufferView_49",
            "byteOffset": 3552,
            "byteStride": 0,
            "componentType": 5123,
            "count": 1728,
            "type": "SCALAR"
        },
        "accessor_33": {
            "bufferView": "bufferView_50",
            "byteOffset": 288,
            "byteStride": 12,
            "componentType": 5126,
            "count": 580,
            "max": [
                0.202482,
                0.202482,
                0.195261
            ],
            "min": [
                -0.202482,
                -0.202482,
                -0.201992
            ],
            "type": "VEC3"
        },
        "accessor_35": {
            "bufferView": "bufferView_50",
            "byteOffset": 7248,
            "byteStride": 12,
            "componentType": 5126,
            "count": 580,
            "max": [
                0.994275,
                0.994275,
                1
            ],
            "min": [
                -0.994275,
                -0.994275,
                -1
            ],
            "type": "VEC3"
        },
        "accessor_45": {
            "bufferView": "bufferView_49",
            "byteOffset": 0,
            "byteStride": 0,
            "componentType": 5123,
            "count": 48,
            "type": "SCALAR"
        },
        "accessor_47": {
            "bufferView": "bufferView_50",
            "byteOffset": 0,
            "byteStride": 12,
            "componentType": 5126,
            "count": 24,
            "max": [
                0.2,
                0.2,
                0
            ],
            "min": [
                -0.2,
                -0.2,
                0
            ],
            "type": "VEC3"
        }
    },
    "animations": {},
    "asset": {
        "generator": "collada2gltf@d78daf1e7950e6c22fe6bec1d07965e8a302e90d",
        "premultipliedAlpha": true,
        "profile": {
            "api": "WebGL",
            "version": "1.0.2"
        },
        "version": 1
    },
    "bufferViews": {
        "bufferView_49": {
            "buffer": "\\collada2gltf\\tagBall3d",
            "byteLength": 7008,
            "byteOffset": 0,
            "target": 34963
        },
        "bufferView_50": {
            "buffer": "\\collada2gltf\\tagBall3d",
            "byteLength": 14208,
            "byteOffset": 7008,
            "target": 34962
        }
    },
    "buffers": {
        "\\collada2gltf\\tagBall3d": {
            "byteLength": 21216,
            "type": "arraybuffer",
            "uri": "data:application/octet-stream;base64,"
        }
    },
    "materials": {
        "ID14": {
            "name": "edge_color000255",
            "technique": "technique0",
            "values": {}
        },
        "ID3": {
            "name": "material",
            "technique": "technique1",
            "values": {
                "diffuse": [
                    1,
                    1,
                    1,
                    1
                ]
            }
        },
        "ID9": {
            "name": "Color_A11",
            "technique": "technique1",
            "values": {
                "diffuse": [
                    0.6,
                    0,
                    0,
                    1
                ]
            }
        }
    },
    "meshes": {
        "ID12": {
            "name": "ID12",
            "primitives": [
                {
                    "attributes": {
                        "POSITION": "accessor_47"
                    },
                    "indices": "accessor_45",
                    "material": "ID14",
                    "mode": 1
                }
            ]
        },
        "ID2": {
            "name": "ID2",
            "primitives": [
                {
                    "attributes": {
                        "NORMAL": "accessor_35",
                        "POSITION": "accessor_33"
                    },
                    "indices": "accessor_28",
                    "material": "ID3",
                    "mode": 4
                },
                {
                    "attributes": {
                        "NORMAL": "accessor_35",
                        "POSITION": "accessor_33"
                    },
                    "indices": "accessor_31",
                    "material": "ID9",
                    "mode": 4
                }
            ]
        }
    },
    "nodes": {
        "node_0": {
            "children": [],
            "matrix": [
                1,
                0,
                0,
                0,
                0,
                1,
                0,
                0,
                0,
                0,
                1,
                0,
                0,
                0,
                0,
                1
            ],
            "meshes": [
                "ID2",
                "ID12"
            ],
            "name": "SketchUp"
        },
        "node_1": {
            "children": [
                "node_0"
            ],
            "matrix": [
                1,
                0,
                0,
                0,
                0,
                0,
                -1,
                0,
                0,
                1,
                0,
                0,
                0,
                0,
                0,
                1
            ],
            "name": "Y_UP_Transform"
        }
    },
    "programs": {
        "program_0": {
            "attributes": [
                "a_position"
            ],
            "fragmentShader": "\\collada2gltf\\tagBall3d0FS",
            "vertexShader": "\\collada2gltf\\tagBall3d0VS"
        },
        "program_1": {
            "attributes": [
                "a_normal",
                "a_position"
            ],
            "fragmentShader": "\\collada2gltf\\tagBall3d1FS",
            "vertexShader": "\\collada2gltf\\tagBall3d1VS"
        }
    },
    "scene": "defaultScene",
    "scenes": {
        "defaultScene": {
            "nodes": [
                "node_1"
            ]
        }
    },
    "shaders": {
        "\\collada2gltf\\tagBall3d0FS": {
            "type": 35632,
            "uri": "data:text/plain;base64,"
        },
        "\\collada2gltf\\tagBall3d0VS": {
            "type": 35633,
            "uri": "data:text/plain;base64,"
        },
        "\\collada2gltf\\tagBall3d1FS": {
            "type": 35632,
            "uri": "data:text/plain;base64,"
        },
        "\\collada2gltf\\tagBall3d1VS": {
            "type": 35633,
            "uri": "data:text/plain;base64,"
        }
    },
    "skins": {},
    "techniques": {
        "technique0": {
            "attributes": {
                "a_position": "position"
            },
            "parameters": {
                "modelViewMatrix": {
                    "semantic": "MODELVIEW",
                    "type": 35676
                },
                "position": {
                    "semantic": "POSITION",
                    "type": 35665
                },
                "projectionMatrix": {
                    "semantic": "PROJECTION",
                    "type": 35676
                }
            },
            "program": "program_0",
            "states": {
                "enable": [
                    2929,
                    2884
                ]
            },
            "uniforms": {
                "u_modelViewMatrix": "modelViewMatrix",
                "u_projectionMatrix": "projectionMatrix"
            }
        },
        "technique1": {
            "attributes": {
                "a_normal": "normal",
                "a_position": "position"
            },
            "parameters": {
                "diffuse": {
                    "type": 35666
                },
                "modelViewMatrix": {
                    "semantic": "MODELVIEW",
                    "type": 35676
                },
                "normal": {
                    "semantic": "NORMAL",
                    "type": 35665
                },
                "normalMatrix": {
                    "semantic": "MODELVIEWINVERSETRANSPOSE",
                    "type": 35675
                },
                "position": {
                    "semantic": "POSITION",
                    "type": 35665
                },
                "projectionMatrix": {
                    "semantic": "PROJECTION",
                    "type": 35676
                }
            },
            "program": "program_1",
            "states": {
                "enable": [
                    2929,
                    2884
                ]
            },
            "uniforms": {
                "u_diffuse": "diffuse",
                "u_modelViewMatrix": "modelViewMatrix",
                "u_normalMatrix": "normalMatrix",
                "u_projectionMatrix": "projectionMatrix"
            }
        }
    }
}